<svg xmlns="http://www.w3.org/2000/svg" xmlns:xlink="http://www.w3.org/1999/xlink" width="1920" zoomAndPan="magnify" viewBox="0 0 1440 809.999993" height="1080" preserveAspectRatio="xMidYMid meet" version="1.0"><defs><clipPath id="a8d93d36b3"><path d="M 443.96875 128.96875 L 995.96875 128.96875 L 995.96875 680.96875 L 443.96875 680.96875 Z M 443.96875 128.96875 " clip-rule="nonzero"/></clipPath></defs><rect x="-144" width="1728" fill="#ffffff" y="-80.999999" height="971.999992" fill-opacity="1"/><rect x="-144" width="1728" fill="#ffffff" y="-80.999999" height="971.999992" fill-opacity="1"/><g clip-path="url(#a8d93d36b3)"><path fill="#000000" d="M 719.96875 128.96875 C 715.453125 128.96875 710.9375 129.082031 706.425781 129.300781 C 701.914062 129.523438 697.414062 129.855469 692.917969 130.300781 C 688.421875 130.742188 683.941406 131.292969 679.472656 131.957031 C 675.003906 132.621094 670.554688 133.390625 666.125 134.273438 C 661.695312 135.15625 657.289062 136.144531 652.90625 137.242188 C 648.527344 138.339844 644.171875 139.542969 639.851562 140.855469 C 635.527344 142.164062 631.242188 143.582031 626.988281 145.105469 C 622.734375 146.625 618.523438 148.25 614.347656 149.980469 C 610.175781 151.707031 606.046875 153.539062 601.964844 155.46875 C 597.882812 157.398438 593.847656 159.429688 589.863281 161.558594 C 585.878906 163.6875 581.953125 165.914062 578.078125 168.238281 C 574.203125 170.558594 570.386719 172.976562 566.632812 175.484375 C 562.875 177.992188 559.183594 180.59375 555.558594 183.285156 C 551.929688 185.976562 548.367188 188.753906 544.878906 191.617188 C 541.386719 194.484375 537.964844 197.433594 534.621094 200.46875 C 531.273438 203.5 528.003906 206.613281 524.808594 209.808594 C 521.613281 213.003906 518.5 216.273438 515.46875 219.621094 C 512.433594 222.964844 509.484375 226.386719 506.617188 229.878906 C 503.753906 233.367188 500.976562 236.929688 498.285156 240.558594 C 495.59375 244.183594 492.992188 247.875 490.484375 251.632812 C 487.976562 255.386719 485.558594 259.203125 483.238281 263.078125 C 480.914062 266.953125 478.6875 270.878906 476.558594 274.863281 C 474.429688 278.847656 472.398438 282.882812 470.46875 286.964844 C 468.539062 291.046875 466.707031 295.175781 464.980469 299.347656 C 463.25 303.523438 461.625 307.734375 460.105469 311.988281 C 458.582031 316.242188 457.164062 320.527344 455.855469 324.851562 C 454.542969 329.171875 453.339844 333.527344 452.242188 337.90625 C 451.144531 342.289062 450.15625 346.695312 449.273438 351.125 C 448.390625 355.554688 447.621094 360.003906 446.957031 364.472656 C 446.292969 368.941406 445.742188 373.421875 445.300781 377.917969 C 444.855469 382.414062 444.523438 386.914062 444.300781 391.425781 C 444.082031 395.9375 443.96875 400.453125 443.96875 404.96875 C 443.96875 409.488281 444.082031 414 444.300781 418.511719 C 444.523438 423.023438 444.855469 427.527344 445.300781 432.023438 C 445.742188 436.519531 446.292969 441 446.957031 445.46875 C 447.621094 449.9375 448.390625 454.382812 449.273438 458.816406 C 450.15625 463.246094 451.144531 467.652344 452.242188 472.03125 C 453.339844 476.414062 454.542969 480.765625 455.855469 485.089844 C 457.164062 489.410156 458.582031 493.699219 460.105469 497.953125 C 461.625 502.203125 463.25 506.417969 464.980469 510.589844 C 466.707031 514.761719 468.539062 518.890625 470.46875 522.976562 C 472.398438 527.058594 474.429688 531.089844 476.558594 535.074219 C 478.6875 539.058594 480.914062 542.988281 483.238281 546.863281 C 485.558594 550.738281 487.976562 554.550781 490.484375 558.308594 C 492.992188 562.0625 495.59375 565.753906 498.285156 569.382812 C 500.976562 573.011719 503.753906 576.570312 506.617188 580.0625 C 509.484375 583.554688 512.433594 586.972656 515.46875 590.320312 C 518.5 593.667969 521.613281 596.9375 524.808594 600.132812 C 528.003906 603.324219 531.273438 606.4375 534.621094 609.472656 C 537.964844 612.503906 541.386719 615.457031 544.878906 618.320312 C 548.367188 621.1875 551.929688 623.964844 555.558594 626.65625 C 559.183594 629.347656 562.875 631.945312 566.632812 634.457031 C 570.386719 636.964844 574.203125 639.378906 578.078125 641.703125 C 581.953125 644.023438 585.878906 646.25 589.863281 648.378906 C 593.847656 650.507812 597.882812 652.539062 601.964844 654.472656 C 606.046875 656.402344 610.175781 658.230469 614.347656 659.960938 C 618.523438 661.6875 622.734375 663.3125 626.988281 664.835938 C 631.242188 666.359375 635.527344 667.773438 639.851562 669.085938 C 644.171875 670.398438 648.527344 671.601562 652.90625 672.699219 C 657.289062 673.796875 661.695312 674.785156 666.125 675.667969 C 670.554688 676.546875 675.003906 677.320312 679.472656 677.984375 C 683.941406 678.644531 688.421875 679.199219 692.917969 679.640625 C 697.414062 680.082031 701.914062 680.414062 706.425781 680.636719 C 710.9375 680.859375 715.453125 680.96875 719.96875 680.96875 C 724.488281 680.96875 729 680.859375 733.511719 680.636719 C 738.023438 680.414062 742.527344 680.082031 747.023438 679.640625 C 751.519531 679.199219 756 678.644531 760.46875 677.984375 C 764.933594 677.320312 769.382812 676.546875 773.816406 675.667969 C 778.246094 674.785156 782.652344 673.796875 787.03125 672.699219 C 791.414062 671.601562 795.765625 670.398438 800.089844 669.085938 C 804.410156 667.773438 808.699219 666.359375 812.953125 664.835938 C 817.203125 663.3125 821.417969 661.6875 825.589844 659.960938 C 829.761719 658.230469 833.890625 656.402344 837.976562 654.472656 C 842.058594 652.539062 846.089844 650.507812 850.074219 648.378906 C 854.058594 646.25 857.988281 644.023438 861.863281 641.703125 C 865.738281 639.378906 869.550781 636.964844 873.308594 634.457031 C 877.0625 631.945312 880.753906 629.347656 884.382812 626.65625 C 888.011719 623.964844 891.570312 621.1875 895.0625 618.320312 C 898.554688 615.457031 901.972656 612.503906 905.320312 609.472656 C 908.667969 606.4375 911.9375 603.324219 915.132812 600.132812 C 918.324219 596.9375 921.4375 593.667969 924.472656 590.320312 C 927.503906 586.972656 930.457031 583.554688 933.320312 580.0625 C 936.1875 576.570312 938.964844 573.011719 941.65625 569.382812 C 944.347656 565.753906 946.945312 562.0625 949.457031 558.308594 C 951.964844 554.550781 954.378906 550.738281 956.703125 546.863281 C 959.023438 542.988281 961.25 539.058594 963.378906 535.074219 C 965.507812 531.089844 967.539062 527.058594 969.472656 522.976562 C 971.402344 518.890625 973.230469 514.761719 974.960938 510.589844 C 976.6875 506.417969 978.3125 502.203125 979.835938 497.953125 C 981.359375 493.699219 982.773438 489.410156 984.085938 485.089844 C 985.398438 480.765625 986.601562 476.414062 987.699219 472.03125 C 988.796875 467.652344 989.785156 463.246094 990.667969 458.816406 C 991.546875 454.382812 992.320312 449.9375 992.984375 445.46875 C 993.644531 441 994.199219 436.519531 994.640625 432.023438 C 995.082031 427.527344 995.414062 423.023438 995.636719 418.511719 C 995.859375 414 995.96875 409.488281 995.96875 404.96875 C 995.96875 400.453125 995.859375 395.9375 995.636719 391.429688 C 995.414062 386.917969 995.082031 382.414062 994.636719 377.917969 C 994.195312 373.421875 993.640625 368.941406 992.976562 364.472656 C 992.316406 360.007812 991.542969 355.558594 990.660156 351.128906 C 989.777344 346.699219 988.789062 342.292969 987.691406 337.910156 C 986.59375 333.527344 985.390625 329.175781 984.078125 324.855469 C 982.765625 320.53125 981.347656 316.246094 979.828125 311.992188 C 978.304688 307.742188 976.679688 303.527344 974.953125 299.355469 C 973.222656 295.183594 971.390625 291.054688 969.460938 286.972656 C 967.53125 282.886719 965.5 278.855469 963.371094 274.871094 C 961.242188 270.886719 959.015625 266.960938 956.691406 263.085938 C 954.371094 259.210938 951.953125 255.394531 949.445312 251.640625 C 946.933594 247.886719 944.335938 244.195312 941.644531 240.566406 C 938.953125 236.9375 936.175781 233.378906 933.308594 229.886719 C 930.445312 226.394531 927.496094 222.976562 924.460938 219.628906 C 921.429688 216.28125 918.316406 213.011719 915.121094 209.820312 C 911.925781 206.625 908.65625 203.511719 905.308594 200.476562 C 901.964844 197.445312 898.542969 194.496094 895.054688 191.628906 C 891.5625 188.765625 888 185.984375 884.375 183.296875 C 880.746094 180.605469 877.054688 178.003906 873.300781 175.496094 C 869.542969 172.984375 865.730469 170.570312 861.855469 168.246094 C 857.980469 165.925781 854.050781 163.699219 850.070312 161.570312 C 846.085938 159.441406 842.050781 157.410156 837.96875 155.480469 C 833.886719 153.546875 829.757812 151.71875 825.585938 149.988281 C 821.414062 148.257812 817.199219 146.632812 812.945312 145.113281 C 808.695312 143.589844 804.40625 142.171875 800.085938 140.863281 C 795.761719 139.550781 791.410156 138.347656 787.027344 137.25 C 782.648438 136.148438 778.242188 135.160156 773.8125 134.277344 C 769.382812 133.398438 764.933594 132.625 760.464844 131.960938 C 755.996094 131.296875 751.515625 130.746094 747.023438 130.300781 C 742.527344 129.859375 738.023438 129.527344 733.511719 129.304688 C 729 129.082031 724.488281 128.96875 719.96875 128.96875 Z M 719.96875 232.46875 C 721.601562 232.46875 723.234375 232.515625 724.863281 232.609375 C 726.496094 232.703125 728.121094 232.84375 729.742188 233.03125 C 731.363281 233.21875 732.980469 233.453125 734.589844 233.734375 C 736.195312 234.015625 737.796875 234.34375 739.386719 234.714844 C 740.972656 235.089844 742.550781 235.507812 744.117188 235.972656 C 745.683594 236.4375 747.234375 236.949219 748.769531 237.503906 C 750.304688 238.058594 751.824219 238.65625 753.324219 239.300781 C 754.824219 239.941406 756.304688 240.628906 757.765625 241.355469 C 759.230469 242.082031 760.667969 242.855469 762.085938 243.664062 C 763.5 244.476562 764.894531 245.328125 766.261719 246.21875 C 767.628906 247.113281 768.96875 248.042969 770.285156 249.011719 C 771.597656 249.984375 772.882812 250.988281 774.136719 252.035156 C 775.390625 253.078125 776.617188 254.15625 777.808594 255.269531 C 779.003906 256.386719 780.164062 257.535156 781.289062 258.714844 C 782.414062 259.898438 783.507812 261.113281 784.5625 262.355469 C 785.621094 263.601562 786.640625 264.875 787.621094 266.179688 C 788.605469 267.484375 789.546875 268.816406 790.453125 270.175781 C 791.359375 271.535156 792.226562 272.917969 793.050781 274.324219 C 793.875 275.734375 794.660156 277.167969 795.402344 278.621094 C 796.144531 280.074219 796.84375 281.546875 797.503906 283.042969 C 798.160156 284.539062 798.773438 286.050781 799.34375 287.582031 C 799.914062 289.109375 800.4375 290.65625 800.917969 292.214844 C 801.398438 293.777344 801.835938 295.351562 802.222656 296.9375 C 802.613281 298.523438 802.957031 300.117188 803.253906 301.722656 C 803.550781 303.328125 803.800781 304.941406 804.003906 306.5625 C 804.207031 308.179688 804.367188 309.804688 804.476562 311.433594 C 804.585938 313.0625 804.648438 314.695312 804.664062 316.328125 C 804.679688 317.960938 804.644531 319.59375 804.566406 321.222656 C 804.488281 322.855469 804.363281 324.480469 804.1875 326.105469 C 804.015625 327.726562 803.796875 329.347656 803.527344 330.957031 C 803.261719 332.566406 802.949219 334.167969 802.589844 335.761719 C 802.230469 337.355469 801.824219 338.9375 801.375 340.503906 C 800.921875 342.074219 800.425781 343.628906 799.886719 345.167969 C 799.34375 346.710938 798.757812 348.234375 798.128906 349.742188 C 797.5 351.246094 796.828125 352.734375 796.113281 354.203125 C 795.398438 355.671875 794.640625 357.117188 793.84375 358.539062 C 793.042969 359.964844 792.203125 361.363281 791.324219 362.738281 C 790.445312 364.117188 789.527344 365.464844 788.570312 366.785156 C 787.609375 368.109375 786.617188 369.402344 785.582031 370.667969 C 784.550781 371.933594 783.480469 373.164062 782.378906 374.367188 C 781.273438 375.570312 780.136719 376.742188 778.964844 377.878906 C 777.792969 379.015625 776.589844 380.117188 775.351562 381.183594 C 774.117188 382.253906 772.851562 383.285156 771.554688 384.277344 C 770.261719 385.273438 768.9375 386.226562 767.585938 387.144531 C 766.238281 388.0625 764.859375 388.941406 763.460938 389.777344 C 762.058594 390.617188 760.632812 391.414062 759.1875 392.167969 C 757.738281 392.925781 756.269531 393.636719 754.78125 394.308594 C 753.292969 394.980469 751.785156 395.605469 750.261719 396.191406 C 748.738281 396.773438 747.195312 397.3125 745.640625 397.804688 C 744.082031 398.300781 742.515625 398.75 740.933594 399.152344 C 739.351562 399.554688 737.757812 399.914062 736.15625 400.226562 C 734.550781 400.535156 732.941406 400.800781 731.324219 401.019531 C 729.703125 401.238281 728.082031 401.410156 726.453125 401.535156 C 724.824219 401.65625 723.195312 401.734375 721.5625 401.765625 C 719.929688 401.792969 718.296875 401.777344 716.667969 401.710938 C 715.035156 401.648438 713.40625 401.535156 711.78125 401.378906 C 710.15625 401.21875 708.539062 401.011719 706.925781 400.761719 C 705.3125 400.507812 703.707031 400.210938 702.109375 399.863281 C 700.515625 399.519531 698.929688 399.128906 697.355469 398.691406 C 695.785156 398.253906 694.226562 397.773438 692.679688 397.246094 C 691.132812 396.71875 689.605469 396.144531 688.09375 395.53125 C 686.582031 394.914062 685.085938 394.257812 683.613281 393.554688 C 682.140625 392.851562 680.6875 392.109375 679.253906 391.320312 C 677.824219 390.535156 676.417969 389.707031 675.035156 388.839844 C 603.964844 343.820312 634.753906 233.332031 719.96875 232.46875 Z M 819.242188 577.46875 L 620.695312 577.46875 C 618.648438 577.464844 616.605469 577.363281 614.566406 577.15625 C 612.527344 576.953125 610.503906 576.648438 608.496094 576.246094 C 606.484375 575.84375 604.5 575.34375 602.542969 574.746094 C 600.582031 574.148438 598.65625 573.457031 596.765625 572.671875 C 594.875 571.882812 593.023438 571.007812 591.21875 570.039062 C 589.414062 569.070312 587.660156 568.015625 585.957031 566.878906 C 584.253906 565.738281 582.613281 564.515625 581.03125 563.214844 C 579.445312 561.914062 577.933594 560.539062 576.484375 559.089844 C 575.035156 557.640625 573.664062 556.121094 572.363281 554.539062 C 571.066406 552.953125 569.847656 551.308594 568.710938 549.605469 C 567.574219 547.902344 566.519531 546.148438 565.554688 544.339844 C 564.589844 542.53125 563.714844 540.683594 562.933594 538.789062 C 562.148438 536.898438 561.457031 534.96875 560.863281 533.011719 C 560.269531 531.050781 559.769531 529.066406 559.371094 527.054688 C 558.972656 525.046875 558.671875 523.023438 558.46875 520.984375 C 558.265625 518.945312 558.164062 516.902344 558.164062 514.851562 C 558.164062 461.808594 597.234375 416.011719 653.296875 395.394531 C 655.605469 397.347656 657.992188 399.195312 660.464844 400.9375 C 662.933594 402.679688 665.472656 404.308594 668.085938 405.828125 C 670.699219 407.347656 673.371094 408.75 676.109375 410.035156 C 678.84375 411.316406 681.632812 412.480469 684.46875 413.519531 C 687.304688 414.558594 690.183594 415.472656 693.101562 416.257812 C 696.019531 417.042969 698.964844 417.703125 701.941406 418.230469 C 704.917969 418.757812 707.910156 419.152344 710.921875 419.417969 C 713.929688 419.683594 716.949219 419.816406 719.96875 419.816406 C 722.992188 419.816406 726.007812 419.683594 729.019531 419.417969 C 732.027344 419.152344 735.023438 418.757812 737.996094 418.230469 C 740.972656 417.703125 743.921875 417.042969 746.835938 416.257812 C 749.753906 415.472656 752.632812 414.558594 755.472656 413.519531 C 758.308594 412.480469 761.09375 411.316406 763.832031 410.035156 C 766.566406 408.75 769.242188 407.347656 771.855469 405.828125 C 774.464844 404.308594 777.007812 402.679688 779.476562 400.9375 C 781.945312 399.195312 784.335938 397.347656 786.640625 395.394531 C 842.703125 416.011719 881.773438 461.808594 881.773438 514.851562 C 881.773438 516.902344 881.671875 518.945312 881.472656 520.984375 C 881.269531 523.023438 880.96875 525.046875 880.570312 527.054688 C 880.167969 529.066406 879.671875 531.050781 879.074219 533.011719 C 878.480469 534.96875 877.792969 536.898438 877.007812 538.789062 C 876.222656 540.683594 875.347656 542.53125 874.382812 544.339844 C 873.417969 546.148438 872.367188 547.902344 871.230469 549.605469 C 870.09375 551.308594 868.875 552.953125 867.574219 554.539062 C 866.277344 556.121094 864.902344 557.640625 863.457031 559.089844 C 862.007812 560.539062 860.492188 561.914062 858.910156 563.214844 C 857.328125 564.515625 855.683594 565.738281 853.984375 566.878906 C 852.28125 568.015625 850.527344 569.070312 848.722656 570.039062 C 846.914062 571.007812 845.066406 571.882812 843.175781 572.671875 C 841.28125 573.457031 839.355469 574.148438 837.398438 574.746094 C 835.4375 575.34375 833.453125 575.84375 831.445312 576.246094 C 829.4375 576.648438 827.414062 576.953125 825.375 577.15625 C 823.335938 577.363281 821.292969 577.464844 819.242188 577.46875 Z M 819.242188 577.46875 " fill-opacity="1" fill-rule="nonzero"/></g></svg>