<svg xmlns="http://www.w3.org/2000/svg" xmlns:xlink="http://www.w3.org/1999/xlink" width="1920" zoomAndPan="magnify" viewBox="0 0 1440 809.999993" height="1080" preserveAspectRatio="xMidYMid meet" version="1.0"><defs><g/><clipPath id="3aaa12b0c3"><path d="M 268 313.375 L 463 313.375 L 463 495 L 268 495 Z M 268 313.375 " clip-rule="nonzero"/></clipPath></defs><rect x="-144" width="1728" fill="#ffffff" y="-80.999999" height="971.999992" fill-opacity="1"/><rect x="-144" width="1728" fill="#ffffff" y="-80.999999" height="971.999992" fill-opacity="1"/><g clip-path="url(#3aaa12b0c3)"><path fill="#000000" d="M 356.128906 401.9375 C 352.054688 397.597656 348.347656 393.710938 344.71875 389.761719 C 334.777344 378.941406 325.492188 367.605469 319.449219 354.074219 C 317.832031 350.351562 316.960938 346.464844 316.839844 342.410156 C 316.515625 332.085938 325.875 324.9375 335.910156 327.300781 C 342.871094 328.9375 348.230469 332.847656 352.175781 338.6875 C 354.890625 342.710938 357.359375 346.898438 360.511719 351.933594 C 361.605469 348.601562 362.523438 346.199219 363.179688 343.730469 C 365.824219 333.945312 370.113281 325.253906 378.863281 319.457031 C 384.582031 315.6875 390.769531 313.398438 397.707031 313.566406 C 411.820312 313.921875 420.007812 323.929688 418.117188 337.914062 C 416.320312 351.21875 410.328125 362.746094 403.480469 373.882812 C 397.8125 383.09375 391.546875 391.929688 385.554688 400.941406 C 385.09375 401.628906 384.683594 402.347656 383.902344 403.613281 C 389.25 402.375 394.035156 401.289062 398.808594 400.152344 C 412.164062 396.964844 425.671875 394.941406 439.421875 395.359375 C 445.605469 395.546875 451.695312 396.566406 456.820312 400.527344 C 464.128906 406.15625 464.992188 416.09375 458.871094 422.96875 C 453.53125 428.96875 446.691406 431.582031 438.871094 431.984375 C 435.691406 432.144531 432.5 432.019531 429.316406 432.121094 C 428.109375 432.164062 426.90625 432.496094 425.144531 432.796875 C 427.667969 435.585938 429.707031 438 431.914062 440.242188 C 439.78125 448.257812 444.425781 457.621094 443.8125 469.066406 C 443.382812 476.949219 440.816406 484.003906 434.75 489.457031 C 428.199219 495.347656 420.433594 496.347656 412.71875 492.140625 C 403.71875 487.222656 396.878906 479.835938 391.902344 471.121094 C 384.261719 457.796875 377.425781 444.03125 370.234375 430.449219 C 369.695312 429.433594 369.246094 428.378906 368.441406 426.675781 C 366.832031 432.007812 365.460938 436.703125 364.050781 441.390625 C 360.113281 454.425781 355.375 467.179688 347.964844 478.644531 C 345.148438 483 341.410156 487.140625 337.199219 490.105469 C 328.492188 496.226562 317.257812 491.835938 314.039062 481.703125 C 311.34375 473.191406 313.367188 465.390625 317.609375 457.910156 C 319.320312 454.90625 320.9375 451.847656 322.59375 448.816406 L 322.046875 448.113281 C 317.96875 449.015625 313.902344 450.007812 309.804688 450.820312 C 295.253906 453.683594 282.886719 449.964844 273.421875 438.261719 C 269.402344 433.28125 267.730469 427.398438 268.339844 420.964844 C 269.019531 413.601562 273.824219 409.300781 279.90625 406.117188 C 286.695312 402.601562 294.023438 401 301.574219 400.328125 C 319.09375 398.761719 336.558594 400.1875 353.988281 401.789062 C 354.46875 401.835938 354.96875 401.863281 356.128906 401.9375 Z M 356.128906 401.9375 " fill-opacity="1" fill-rule="nonzero"/></g><g fill="#000000" fill-opacity="1"><g transform="translate(517.622688, 470.431188)"><g><path d="M 72.78125 1.90625 C 60.507812 1.90625 49.695312 -0.640625 40.34375 -5.734375 C 31 -10.835938 23.679688 -18.503906 18.390625 -28.734375 C 13.109375 -38.972656 10.46875 -51.585938 10.46875 -66.578125 C 10.46875 -81.578125 13.109375 -94.191406 18.390625 -104.421875 C 23.679688 -114.660156 31 -122.328125 40.34375 -127.421875 C 49.695312 -132.523438 60.507812 -135.078125 72.78125 -135.078125 C 85.59375 -135.078125 96.476562 -132.570312 105.4375 -127.5625 C 114.394531 -122.550781 120.785156 -114.914062 124.609375 -104.65625 L 105.390625 -92.90625 L 103.109375 -93 C 100.253906 -99.925781 96.382812 -104.890625 91.5 -107.890625 C 86.613281 -110.898438 80.375 -112.40625 72.78125 -112.40625 C 61.726562 -112.40625 53.101562 -108.742188 46.90625 -101.421875 C 40.71875 -94.109375 37.625 -82.492188 37.625 -66.578125 C 37.625 -50.734375 40.71875 -39.148438 46.90625 -31.828125 C 53.101562 -24.515625 61.726562 -20.859375 72.78125 -20.859375 C 90.082031 -20.859375 100.675781 -29.269531 104.5625 -46.09375 L 106.84375 -46.09375 L 126.25 -35.984375 C 122.601562 -23.347656 116.375 -13.875 107.5625 -7.5625 C 98.757812 -1.25 87.164062 1.90625 72.78125 1.90625 Z M 72.78125 1.90625 "/></g></g></g><g fill="#000000" fill-opacity="1"><g transform="translate(648.204122, 470.431188)"><g><path d="M 99.28125 -44.546875 L 34.703125 -44.546875 C 35.429688 -35.796875 37.921875 -29.429688 42.171875 -25.453125 C 46.421875 -21.484375 52.222656 -19.5 59.578125 -19.5 C 65.335938 -19.5 70.007812 -20.570312 73.59375 -22.71875 C 77.175781 -24.875 80.0625 -28.140625 82.25 -32.515625 L 84.171875 -32.515625 L 100.921875 -21.765625 C 97.640625 -14.722656 92.691406 -9.015625 86.078125 -4.640625 C 79.460938 -0.273438 70.628906 1.90625 59.578125 1.90625 C 49.191406 1.90625 40.21875 -0.0625 32.65625 -4 C 25.09375 -7.945312 19.257812 -13.820312 15.15625 -21.625 C 11.0625 -29.4375 9.015625 -38.957031 9.015625 -50.1875 C 9.015625 -61.601562 11.171875 -71.226562 15.484375 -79.0625 C 19.796875 -86.894531 25.625 -92.738281 32.96875 -96.59375 C 40.320312 -100.445312 48.582031 -102.375 57.75 -102.375 C 71.957031 -102.375 82.84375 -98.609375 90.40625 -91.078125 C 97.96875 -83.554688 101.75 -72.507812 101.75 -57.9375 C 101.75 -52.644531 101.566406 -48.546875 101.203125 -45.640625 Z M 77.609375 -60.84375 C 77.359375 -68.5 75.578125 -74.070312 72.265625 -77.5625 C 68.960938 -81.050781 64.125 -82.796875 57.75 -82.796875 C 45 -82.796875 37.5 -75.476562 35.25 -60.84375 Z M 77.609375 -60.84375 "/></g></g></g><g fill="#000000" fill-opacity="1"><g transform="translate(757.386263, 470.431188)"><g><path d="M 14.484375 0 L 14.484375 -100.46875 L 38.984375 -100.46875 L 38.984375 -85.53125 L 40.890625 -85.171875 C 43.328125 -90.753906 46.519531 -94.847656 50.46875 -97.453125 C 54.414062 -100.066406 59.210938 -101.375 64.859375 -101.375 C 70.566406 -101.375 74.90625 -100.40625 77.875 -98.46875 L 73.59375 -76.703125 L 71.6875 -76.328125 C 70.039062 -76.992188 68.457031 -77.476562 66.9375 -77.78125 C 65.425781 -78.09375 63.578125 -78.25 61.390625 -78.25 C 54.347656 -78.25 48.972656 -75.769531 45.265625 -70.8125 C 41.566406 -65.863281 39.71875 -57.925781 39.71875 -47 L 39.71875 0 Z M 14.484375 0 "/></g></g></g><g fill="#000000" fill-opacity="1"><g transform="translate(836.154039, 470.431188)"><g><path d="M 99.28125 -44.546875 L 34.703125 -44.546875 C 35.429688 -35.796875 37.921875 -29.429688 42.171875 -25.453125 C 46.421875 -21.484375 52.222656 -19.5 59.578125 -19.5 C 65.335938 -19.5 70.007812 -20.570312 73.59375 -22.71875 C 77.175781 -24.875 80.0625 -28.140625 82.25 -32.515625 L 84.171875 -32.515625 L 100.921875 -21.765625 C 97.640625 -14.722656 92.691406 -9.015625 86.078125 -4.640625 C 79.460938 -0.273438 70.628906 1.90625 59.578125 1.90625 C 49.191406 1.90625 40.21875 -0.0625 32.65625 -4 C 25.09375 -7.945312 19.257812 -13.820312 15.15625 -21.625 C 11.0625 -29.4375 9.015625 -38.957031 9.015625 -50.1875 C 9.015625 -61.601562 11.171875 -71.226562 15.484375 -79.0625 C 19.796875 -86.894531 25.625 -92.738281 32.96875 -96.59375 C 40.320312 -100.445312 48.582031 -102.375 57.75 -102.375 C 71.957031 -102.375 82.84375 -98.609375 90.40625 -91.078125 C 97.96875 -83.554688 101.75 -72.507812 101.75 -57.9375 C 101.75 -52.644531 101.566406 -48.546875 101.203125 -45.640625 Z M 77.609375 -60.84375 C 77.359375 -68.5 75.578125 -74.070312 72.265625 -77.5625 C 68.960938 -81.050781 64.125 -82.796875 57.75 -82.796875 C 45 -82.796875 37.5 -75.476562 35.25 -60.84375 Z M 77.609375 -60.84375 "/></g></g></g><g fill="#000000" fill-opacity="1"><g transform="translate(945.33618, 470.431188)"><g><path d="M 99.28125 -44.546875 L 34.703125 -44.546875 C 35.429688 -35.796875 37.921875 -29.429688 42.171875 -25.453125 C 46.421875 -21.484375 52.222656 -19.5 59.578125 -19.5 C 65.335938 -19.5 70.007812 -20.570312 73.59375 -22.71875 C 77.175781 -24.875 80.0625 -28.140625 82.25 -32.515625 L 84.171875 -32.515625 L 100.921875 -21.765625 C 97.640625 -14.722656 92.691406 -9.015625 86.078125 -4.640625 C 79.460938 -0.273438 70.628906 1.90625 59.578125 1.90625 C 49.191406 1.90625 40.21875 -0.0625 32.65625 -4 C 25.09375 -7.945312 19.257812 -13.820312 15.15625 -21.625 C 11.0625 -29.4375 9.015625 -38.957031 9.015625 -50.1875 C 9.015625 -61.601562 11.171875 -71.226562 15.484375 -79.0625 C 19.796875 -86.894531 25.625 -92.738281 32.96875 -96.59375 C 40.320312 -100.445312 48.582031 -102.375 57.75 -102.375 C 71.957031 -102.375 82.84375 -98.609375 90.40625 -91.078125 C 97.96875 -83.554688 101.75 -72.507812 101.75 -57.9375 C 101.75 -52.644531 101.566406 -48.546875 101.203125 -45.640625 Z M 77.609375 -60.84375 C 77.359375 -68.5 75.578125 -74.070312 72.265625 -77.5625 C 68.960938 -81.050781 64.125 -82.796875 57.75 -82.796875 C 45 -82.796875 37.5 -75.476562 35.25 -60.84375 Z M 77.609375 -60.84375 "/></g></g></g><g fill="#000000" fill-opacity="1"><g transform="translate(1054.518321, 470.431188)"><g><path d="M 14.484375 0 L 14.484375 -100.46875 L 38.71875 -100.46875 L 38.71875 -85.71875 L 40.625 -85.25 C 46.875 -96.664062 57.015625 -102.375 71.046875 -102.375 C 82.648438 -102.375 91.164062 -99.21875 96.59375 -92.90625 C 102.03125 -86.59375 104.75 -77.394531 104.75 -65.3125 L 104.75 0 L 79.515625 0 L 79.515625 -62.21875 C 79.515625 -68.894531 78.175781 -73.703125 75.5 -76.640625 C 72.832031 -79.585938 68.554688 -81.0625 62.671875 -81.0625 C 55.441406 -81.0625 49.804688 -78.722656 45.765625 -74.046875 C 41.734375 -69.378906 39.71875 -62.035156 39.71875 -52.015625 L 39.71875 0 Z M 14.484375 0 "/></g></g></g></svg>